<svg width="988" height="254" viewBox="0 0 988 254" fill="none" xmlns="http://www.w3.org/2000/svg">
<path d="M49.8125 164.25C41.5208 164.25 34.1042 162.375 27.5625 158.625C21.0208 154.875 15.8542 149.438 12.0625 142.312C8.3125 135.188 6.4375 126.583 6.4375 116.5C6.4375 106.333 8.33333 97.6875 12.125 90.5625C15.9583 83.4375 21.1458 78 27.6875 74.25C34.2708 70.5 41.6458 68.625 49.8125 68.625C57.0208 68.625 63.5 69.9583 69.25 72.625C75.0417 75.2917 79.7708 79.1458 83.4375 84.1875C87.1042 89.2292 89.3542 95.3333 90.1875 102.5H70.3125C69.5625 97.375 67.375 93.3542 63.75 90.4375C60.125 87.4792 55.625 86 50.25 86C43.0833 86 37.3125 88.6667 32.9375 94C28.5625 99.2917 26.375 106.792 26.375 116.5C26.375 126.417 28.5625 133.958 32.9375 139.125C37.3542 144.292 43.1042 146.875 50.1875 146.875C55.3958 146.875 59.8125 145.5 63.4375 142.75C67.1042 140 69.3958 136.146 70.3125 131.188H90.1875C89.4792 136.896 87.4375 142.271 84.0625 147.312C80.7292 152.354 76.1667 156.438 70.375 159.562C64.625 162.688 57.7708 164.25 49.8125 164.25ZM123.375 69.875V163H104V69.875H123.375ZM170.688 164.375C163.521 164.375 157.354 162.917 152.188 160C147.021 157.083 143.042 152.938 140.25 147.562C137.458 142.146 136.062 135.75 136.062 128.375C136.062 121.208 137.438 114.917 140.188 109.5C142.979 104.083 146.896 99.8542 151.938 96.8125C156.979 93.7708 162.917 92.25 169.75 92.25C175.917 92.25 181.479 93.5625 186.438 96.1875C191.438 98.8125 195.396 102.75 198.312 108C201.271 113.25 202.75 119.833 202.75 127.75V133H155.125C155.333 138.292 156.875 142.438 159.75 145.438C162.625 148.438 166.375 149.938 171 149.938C174.208 149.938 176.958 149.25 179.25 147.875C181.583 146.5 183.25 144.5 184.25 141.875L202.125 143.062C200.75 149.479 197.312 154.646 191.812 158.562C186.354 162.438 179.312 164.375 170.688 164.375ZM155.25 121.062H184.188C183.729 116.646 182.312 113.146 179.938 110.562C177.562 107.979 174.229 106.688 169.938 106.688C165.604 106.688 162.167 108.042 159.625 110.75C157.125 113.417 155.667 116.854 155.25 121.062ZM235.438 164.312C228.771 164.312 223.229 162.583 218.812 159.125C214.438 155.625 212.25 150.417 212.25 143.5C212.25 138.292 213.458 134.208 215.875 131.25C218.333 128.25 221.562 126.062 225.562 124.688C229.562 123.271 233.854 122.354 238.438 121.938C244.521 121.354 248.854 120.75 251.438 120.125C254.062 119.458 255.375 118 255.375 115.75V115.438C255.375 112.562 254.458 110.333 252.625 108.75C250.792 107.167 248.146 106.375 244.688 106.375C241.229 106.375 238.396 107.125 236.188 108.625C234.021 110.125 232.583 112.042 231.875 114.375L214.25 111.562C215.917 105.479 219.417 100.75 224.75 97.375C230.125 93.9583 236.792 92.25 244.75 92.25C249.917 92.25 254.771 93.0625 259.312 94.6875C263.896 96.3125 267.604 98.875 270.438 102.375C273.271 105.833 274.688 110.333 274.688 115.875V163H256.375V153.25H255.812C254.104 156.542 251.562 159.208 248.188 161.25C244.854 163.292 240.604 164.312 235.438 164.312ZM230.688 142.875C230.688 145.542 231.646 147.562 233.562 148.938C235.521 150.271 237.979 150.938 240.938 150.938C245.188 150.938 248.667 149.708 251.375 147.25C254.125 144.792 255.5 141.729 255.5 138.062V130.625C254.75 131.125 253.562 131.583 251.938 132C250.354 132.417 248.667 132.771 246.875 133.062C245.083 133.312 243.479 133.542 242.062 133.75C238.646 134.25 235.896 135.229 233.812 136.688C231.729 138.104 230.688 140.167 230.688 142.875ZM309.625 122.625V163H290.25V93.125H309.312V105.562H310C311.583 101.479 314.104 98.25 317.562 95.875C321.021 93.4583 325.333 92.25 330.5 92.25C337.792 92.25 343.625 94.6042 348 99.3125C352.417 103.979 354.625 110.396 354.625 118.562V163H335.25V122C335.25 117.708 334.146 114.354 331.938 111.938C329.771 109.521 326.75 108.312 322.875 108.312C318.958 108.312 315.771 109.583 313.312 112.125C310.854 114.625 309.625 118.125 309.625 122.625Z" fill="#00A5D2"/>
<path d="M412.188 164.25C403.896 164.25 396.479 162.375 389.938 158.625C383.396 154.875 378.229 149.438 374.438 142.312C370.688 135.188 368.812 126.583 368.812 116.5C368.812 106.333 370.708 97.6875 374.5 90.5625C378.333 83.4375 383.521 78 390.062 74.25C396.646 70.5 404.021 68.625 412.188 68.625C419.396 68.625 425.875 69.9583 431.625 72.625C437.417 75.2917 442.146 79.1458 445.812 84.1875C449.479 89.2292 451.729 95.3333 452.562 102.5H432.688C431.938 97.375 429.75 93.3542 426.125 90.4375C422.5 87.4792 418 86 412.625 86C405.458 86 399.688 88.6667 395.312 94C390.938 99.2917 388.75 106.792 388.75 116.5C388.75 126.417 390.938 133.958 395.312 139.125C399.729 144.292 405.479 146.875 412.562 146.875C417.771 146.875 422.188 145.5 425.812 142.75C429.479 140 431.771 136.146 432.688 131.188H452.562C451.854 136.896 449.812 142.271 446.438 147.312C443.104 152.354 438.542 156.438 432.75 159.562C427 162.688 420.146 164.25 412.188 164.25ZM485.75 69.875V163H466.375V69.875H485.75ZM533.062 164.375C525.896 164.375 519.729 162.917 514.562 160C509.396 157.083 505.417 152.938 502.625 147.562C499.833 142.146 498.438 135.75 498.438 128.375C498.438 121.208 499.812 114.917 502.562 109.5C505.354 104.083 509.271 99.8542 514.312 96.8125C519.354 93.7708 525.292 92.25 532.125 92.25C538.292 92.25 543.854 93.5625 548.812 96.1875C553.812 98.8125 557.771 102.75 560.688 108C563.646 113.25 565.125 119.833 565.125 127.75V133H517.5C517.708 138.292 519.25 142.438 522.125 145.438C525 148.438 528.75 149.938 533.375 149.938C536.583 149.938 539.333 149.25 541.625 147.875C543.958 146.5 545.625 144.5 546.625 141.875L564.5 143.062C563.125 149.479 559.688 154.646 554.188 158.562C548.729 162.438 541.688 164.375 533.062 164.375ZM517.625 121.062H546.562C546.104 116.646 544.688 113.146 542.312 110.562C539.938 107.979 536.604 106.688 532.312 106.688C527.979 106.688 524.542 108.042 522 110.75C519.5 113.417 518.042 116.854 517.625 121.062ZM597.812 164.312C591.146 164.312 585.604 162.583 581.188 159.125C576.812 155.625 574.625 150.417 574.625 143.5C574.625 138.292 575.833 134.208 578.25 131.25C580.708 128.25 583.938 126.062 587.938 124.688C591.938 123.271 596.229 122.354 600.812 121.938C606.896 121.354 611.229 120.75 613.812 120.125C616.438 119.458 617.75 118 617.75 115.75V115.438C617.75 112.562 616.833 110.333 615 108.75C613.167 107.167 610.521 106.375 607.062 106.375C603.604 106.375 600.771 107.125 598.562 108.625C596.396 110.125 594.958 112.042 594.25 114.375L576.625 111.562C578.292 105.479 581.792 100.75 587.125 97.375C592.5 93.9583 599.167 92.25 607.125 92.25C612.292 92.25 617.146 93.0625 621.688 94.6875C626.271 96.3125 629.979 98.875 632.812 102.375C635.646 105.833 637.062 110.333 637.062 115.875V163H618.75V153.25H618.188C616.479 156.542 613.938 159.208 610.562 161.25C607.229 163.292 602.979 164.312 597.812 164.312ZM593.062 142.875C593.062 145.542 594.021 147.562 595.938 148.938C597.896 150.271 600.354 150.938 603.312 150.938C607.562 150.938 611.042 149.708 613.75 147.25C616.5 144.792 617.875 141.729 617.875 138.062V130.625C617.125 131.125 615.938 131.583 614.312 132C612.729 132.417 611.042 132.771 609.25 133.062C607.458 133.312 605.854 133.542 604.438 133.75C601.021 134.25 598.271 135.229 596.188 136.688C594.104 138.104 593.062 140.167 593.062 142.875ZM672 122.625V163H652.625V93.125H671.688V105.562H672.375C673.958 101.479 676.479 98.25 679.938 95.875C683.396 93.4583 687.708 92.25 692.875 92.25C700.167 92.25 706 94.6042 710.375 99.3125C714.792 103.979 717 110.396 717 118.562V163H697.625V122C697.625 117.708 696.521 114.354 694.312 111.938C692.146 109.521 689.125 108.312 685.25 108.312C681.333 108.312 678.146 109.583 675.688 112.125C673.229 114.625 672 118.125 672 122.625Z" fill="white"/>
<path d="M809.5 172L762 194.5C739.5 252.5 909.5 229.5 941.5 230C967.1 230.4 965.833 224.167 962 221C982.4 218.2 979.5 194.833 975.5 183.5L958.5 180C935.7 192.4 925.333 195.5 923 195.5C920.2 195.9 846.167 180 809.5 172Z" fill="#00A5D2"/>
<path d="M839.5 131.5C825.1 127.5 814.833 149.167 811.5 160.5L927.5 183.5L954 172C953.2 159.6 947 154.5 944 153.5L839.5 131.5Z" fill="#00A5D2"/>
<rect x="758" y="6" width="224" height="224" rx="34" stroke="#00A5D2" stroke-width="12"/>
<rect x="937.84" y="5.48955" width="17.77" height="145" transform="rotate(23.4538 937.84 5.48955)" fill="#00A5D2"/>
<path d="M827.5 36L832.941 51.9216L850 57L832.941 62.0784L827.5 78L822.059 62.0784L805 57L822.059 51.9216L827.5 36Z" fill="#00A5D2"/>
<path d="M800.5 80L804.607 91.642L817 95.5L804.607 99.358L800.5 111L796.393 99.358L784 95.5L796.393 91.642L800.5 80Z" fill="#00A5D2"/>
<path d="M876.596 124.796C877.522 121.043 881.316 118.751 885.069 119.678L905.725 124.778C909.478 125.704 911.769 129.498 910.843 133.252L907.247 147.814L873 139.359L876.596 124.796Z" fill="#00A5D2"/>
</svg>
